<svg xmlns="http://www.w3.org/2000/svg" viewBox="155 250 1085 280">
<g>
<path d="M 315.18 440.00 C311.80,445.77 308.68,451.12 308.23,451.89 C307.73,452.75 306.46,448.39 304.86,440.33 C300.82,419.88 293.67,405.12 281.60,392.28 C275.09,385.37 266.23,378.00 264.41,378.00 C263.96,378.00 265.22,379.69 267.20,381.75 C273.11,387.89 281.75,400.67 285.92,409.44 C290.28,418.64 295.23,433.74 294.10,434.44 C292.71,435.30 277.32,429.34 270.98,425.49 C263.36,420.86 254.49,412.22 250.68,405.72 C246.96,399.37 243.61,390.25 240.54,378.18 C237.63,366.69 235.16,360.50 231.01,354.36 L 228.07 350.00 L 235.35 350.00 C261.68,350.00 284.21,361.51 300.45,383.26 L 303.25 387.02 L 309.89 377.26 C338.86,334.63 374.01,298.98 404.50,281.30 C415.45,274.96 422.77,271.49 432.37,268.10 C440.74,265.15 456.48,261.94 462.00,262.06 C464.35,262.11 464.38,262.19 462.58,263.31 C436.80,279.30 416.14,297.53 393.82,324.00 C373.45,348.16 340.31,397.05 315.18,440.00 ZM 787.57 427.91 C781.03,429.11 780.56,429.11 773.87,427.98 C754.13,424.65 742.36,407.53 745.06,386.08 C746.71,372.91 753.35,363.39 764.37,358.38 C769.67,355.97 771.78,355.59 780.00,355.57 C791.96,355.53 798.15,357.53 804.92,363.62 C819.34,376.58 820.61,402.24 807.61,417.69 C804.17,421.78 794.70,426.61 787.57,427.91 ZM 603.22 425.77 C594.84,429.29 583.23,429.26 576.40,425.69 C572.08,423.43 567.40,418.00 566.00,413.63 C564.25,408.15 565.21,400.80 568.27,396.17 C571.84,390.77 577.79,388.30 593.33,385.76 C607.46,383.45 611.00,381.64 611.00,376.77 C611.00,365.92 588.81,365.19 586.66,375.97 L 586.05 379.00 L 577.08 379.00 C572.15,379.00 567.87,378.61 567.58,378.12 C566.51,376.39 570.05,367.25 572.97,364.19 C577.46,359.49 583.21,357.02 592.56,355.77 C605.99,353.97 620.14,356.96 625.13,362.64 C629.49,367.61 629.80,369.64 630.30,396.02 C630.56,410.04 631.11,422.75 631.51,424.29 L 632.25 427.08 L 622.37 426.79 L 612.50 426.50 L 612.18 423.75 C611.83,420.71 610.84,420.28 609.09,422.39 C608.46,423.16 605.81,424.67 603.22,425.77 ZM 509.19 404.25 L 508.84 427.00 L 490.00 427.00 L 490.00 329.26 L 509.00 329.46 L 509.00 365.39 L 512.25 362.31 C518.10,356.75 521.62,355.49 531.00,355.57 C542.62,355.68 548.04,358.45 552.36,366.50 C554.40,370.32 554.50,371.79 554.50,398.50 L 554.50 426.50 L 545.25 426.79 L 536.00 427.08 L 536.00 406.67 C536.00,382.93 535.12,376.48 531.45,373.25 C528.33,370.51 520.51,370.17 515.87,372.57 C510.32,375.44 509.58,378.94 509.19,404.25 ZM 913.03 426.46 C889.22,434.19 868.80,420.40 867.25,395.54 C866.15,377.85 872.55,364.97 885.49,358.84 C890.55,356.45 892.78,356.00 899.57,356.00 C910.84,356.00 915.80,357.90 921.91,364.59 C928.09,371.35 931.06,378.89 931.31,388.46 L 931.50 395.50 L 879.06 396.03 L 879.64 399.27 C880.61,404.66 884.02,410.92 887.35,413.40 C897.73,421.15 913.37,418.55 917.62,408.37 C919.00,405.07 919.15,405.00 925.08,405.00 C930.90,405.00 931.11,405.09 930.44,407.25 C927.50,416.74 921.06,423.85 913.03,426.46 ZM 720.75 426.41 C699.74,432.25 678.79,425.13 674.50,410.69 C673.68,407.91 673.00,405.27 673.00,404.82 C673.00,404.37 677.28,404.00 682.50,404.00 C690.37,404.00 692.00,404.26 692.00,405.54 C692.00,410.58 698.78,415.23 706.13,415.23 C713.03,415.23 717.41,412.44 717.80,407.82 C718.24,402.70 715.27,400.79 701.77,397.46 C688.08,394.08 683.33,392.11 679.81,388.36 C670.12,378.03 676.03,361.16 690.86,356.85 C696.69,355.15 714.00,355.18 720.00,356.90 C726.02,358.62 733.25,366.02 734.78,372.01 C735.39,374.41 735.66,376.74 735.38,377.19 C735.11,377.64 731.32,378.00 726.96,378.00 L 719.04 378.00 L 717.10 374.20 C714.82,369.74 711.58,368.00 705.52,368.00 C699.74,368.00 696.14,369.46 695.12,372.20 C693.09,377.68 696.01,380.11 708.05,382.99 C724.56,386.93 728.24,388.31 732.08,391.96 C743.08,402.44 736.65,421.98 720.75,426.41 ZM 955.02 403.00 L 954.50 426.50 L 948.96 426.79 C945.91,426.96 943.10,426.77 942.71,426.38 C942.32,425.99 942.00,410.22 942.00,391.33 L 942.00 357.00 L 954.00 357.00 L 954.00 367.46 L 957.00 363.82 C961.71,358.10 967.11,356.00 977.10,356.00 C990.16,356.00 997.11,360.52 999.98,370.88 C1000.54,372.88 1000.99,386.27 1000.99,400.80 L 1001.00 427.10 L 989.50 426.50 L 989.00 400.50 C988.52,375.32 988.43,374.40 986.18,371.25 C984.91,369.47 982.66,367.67 981.18,367.27 C977.19,366.17 968.67,366.58 965.92,368.00 C962.40,369.81 957.97,374.12 956.67,377.00 C955.98,378.52 955.33,388.76 955.02,403.00 ZM 663.00 329.00 L 663.00 427.00 L 644.00 427.00 L 644.00 329.00 ZM 1047.80 421.30 L 1047.50 426.50 L 1039.50 426.73 C1030.00,427.00 1025.90,425.53 1023.02,420.81 C1021.15,417.73 1021.01,415.80 1021.00,392.80 L 1021.00 368.10 L 1009.50 367.50 L 1009.20 362.30 L 1008.90 357.10 L 1014.70 356.80 L 1020.50 356.50 L 1021.07 336.00 L 1033.00 336.00 L 1033.00 357.00 L 1048.10 357.00 L 1047.50 367.50 L 1040.25 367.79 L 1033.00 368.09 L 1033.00 390.47 C1033.00,409.48 1033.24,413.09 1034.57,414.43 C1036.68,416.54 1040.37,417.36 1044.60,416.68 L 1048.10 416.11 ZM 840.00 405.00 L 839.50 426.50 L 833.84 426.80 C830.72,426.96 827.94,426.72 827.66,426.25 C827.37,425.79 827.18,410.02 827.24,391.21 L 827.34 357.00 L 838.91 357.00 L 839.20 363.51 L 839.50 370.02 L 843.00 365.26 C847.32,359.38 853.61,356.00 860.21,356.00 L 865.00 356.00 L 865.00 367.70 L 858.50 368.78 C850.71,370.07 846.93,372.56 843.25,378.82 C840.53,383.44 840.49,383.75 840.00,405.00 ZM 775.60 412.96 C788.65,416.87 798.00,406.26 796.76,388.95 C795.90,376.89 789.99,370.00 780.50,370.00 C771.01,370.00 765.10,376.89 764.24,388.95 C763.37,401.07 767.91,410.66 775.60,412.96 ZM 881.63 385.29 C882.66,385.55 891.49,385.82 901.25,385.88 L 919.00 386.00 L 918.98 383.75 C918.91,377.04 911.05,367.66 904.45,366.42 C893.01,364.28 882.00,371.07 880.34,381.28 C879.87,384.17 880.11,384.90 881.63,385.29 ZM 592.21 414.98 C602.92,417.38 610.92,410.41 610.98,398.63 C611.00,394.10 610.85,393.80 608.75,394.27 C607.51,394.55 602.90,395.50 598.50,396.39 C588.12,398.47 585.59,400.33 585.20,406.15 C584.86,411.30 586.81,413.76 592.21,414.98 ZM 594.08 330.00 L 593.50 345.50 L 584.95 345.79 C580.25,345.94 576.09,345.76 575.70,345.37 C575.32,344.98 575.00,341.37 575.00,337.33 L 575.00 330.00 ZM 622.00 330.00 L 622.00 346.00 L 613.67 346.00 C609.08,346.00 605.03,345.70 604.67,345.33 C604.30,344.97 604.00,341.37 604.00,337.33 L 604.00 330.00 Z" fill="rgb(81,82,82)"/>
<path d="M 330.50 512.11 C318.75,514.72 293.64,515.50 283.00,513.58 C248.47,507.35 220.50,491.75 199.51,467.01 C187.13,452.42 175.41,431.97 176.67,427.16 C177.45,424.16 181.05,424.84 182.23,428.22 C182.76,429.75 183.81,431.00 184.56,431.00 C186.17,431.00 188.24,427.58 187.25,426.58 C186.87,426.20 187.24,426.16 188.07,426.47 C188.90,426.79 190.06,428.32 190.64,429.86 C191.22,431.40 193.90,435.69 196.60,439.40 C220.39,472.11 247.47,490.35 282.21,497.09 C294.35,499.44 311.60,499.59 323.14,497.45 C332.35,495.73 347.54,491.15 353.00,488.44 C361.69,484.12 371.05,478.27 377.38,473.21 C391.75,461.71 399.43,452.91 413.24,432.11 C415.82,428.22 417.96,427.00 422.19,427.00 C424.29,427.00 426.00,426.52 426.00,425.94 C426.00,425.36 426.45,425.16 427.00,425.50 C427.55,425.84 428.00,425.36 428.00,424.44 C428.00,423.04 428.26,422.97 429.52,424.02 C431.41,425.58 431.01,426.94 425.29,438.49 C406.30,476.82 373.02,502.67 330.50,512.11 ZM 187.75 367.81 C186.67,370.11 185.38,372.00 184.89,372.00 C182.55,372.00 184.85,350.09 188.35,339.00 C193.48,322.73 204.36,305.40 217.57,292.45 C235.37,275.00 255.26,264.54 281.50,258.84 C290.49,256.88 316.58,257.16 326.77,259.32 C343.84,262.93 359.99,269.95 373.91,279.80 L 380.32 284.33 L 374.91 289.13 C371.94,291.78 369.12,293.95 368.66,293.97 C368.19,293.99 363.74,291.53 358.76,288.52 C347.66,281.79 336.51,277.39 324.00,274.78 C311.52,272.18 288.63,272.71 276.74,275.86 C247.44,283.64 222.67,303.46 209.06,330.00 C204.32,339.25 199.00,354.45 199.00,358.73 C199.00,359.96 197.72,361.77 195.99,363.01 C194.33,364.19 193.21,365.54 193.50,366.01 C193.79,366.48 193.60,367.13 193.07,367.46 C192.54,367.79 191.57,367.06 190.91,365.84 C189.76,363.69 189.66,363.75 187.75,367.81 ZM 409.86 380.50 C409.58,388.50 408.88,395.36 408.21,396.50 C407.22,398.19 407.15,397.95 407.77,395.00 C408.17,393.08 408.47,385.20 408.43,377.50 C408.36,362.49 406.43,351.82 401.62,339.91 L 399.26 334.07 L 403.88 328.34 C406.43,325.18 408.95,322.62 409.50,322.64 C412.86,322.78 421.64,352.50 420.83,361.00 C420.51,364.41 420.39,364.50 416.25,364.43 C412.05,364.37 412.00,364.41 411.90,367.93 C411.81,371.11 411.72,371.23 411.07,369.00 C410.64,367.52 410.14,372.21 409.86,380.50 ZM 172.93 412.25 C172.97,415.41 172.81,418.00 172.58,418.00 C171.97,418.00 170.06,408.60 170.57,408.10 C170.81,407.86 171.03,408.30 171.07,409.08 C171.11,409.92 171.49,409.68 172.00,408.50 C172.62,407.06 172.88,408.11 172.93,412.25 ZM 432.00 423.00 C432.00,423.55 431.55,424.00 431.00,424.00 C430.45,424.00 430.00,423.55 430.00,423.00 C430.00,422.45 430.45,422.00 431.00,422.00 C431.55,422.00 432.00,422.45 432.00,423.00 Z" fill="rgb(177,101,37)"/>
<path d="M 1205.00 425.88 C1199.68,428.22 1190.30,429.19 1184.00,428.05 C1168.16,425.19 1158.57,413.29 1157.27,394.89 C1156.10,378.23 1162.48,365.45 1175.28,358.83 C1181.36,355.68 1194.97,355.07 1202.07,357.62 C1213.73,361.82 1223.01,377.71 1221.84,391.50 L 1221.50 395.50 L 1195.38 395.77 L 1169.26 396.03 L 1170.14 400.77 C1172.05,411.13 1180.44,418.00 1191.21,418.00 C1194.45,418.00 1198.37,417.34 1199.93,416.54 C1203.16,414.87 1207.56,409.98 1208.50,407.01 C1209.04,405.30 1210.01,405.00 1215.07,405.00 C1221.91,405.00 1222.03,405.27 1218.61,412.50 C1215.73,418.59 1211.00,423.24 1205.00,425.88 ZM 187.75 367.81 C189.66,363.75 189.76,363.69 190.91,365.84 C191.57,367.06 192.54,367.79 193.07,367.46 C193.60,367.13 193.79,366.48 193.50,366.01 C193.21,365.54 194.33,364.19 195.99,363.01 C197.21,362.14 198.21,360.98 198.69,359.94 C197.64,366.34 197.28,373.02 197.49,380.50 C197.93,396.40 200.82,408.67 207.43,422.63 C213.21,434.82 219.14,443.12 230.47,454.88 C240.27,465.05 236.93,463.93 225.94,453.35 C222.59,450.13 218.76,446.92 217.43,446.22 C216.09,445.51 215.00,444.47 215.00,443.90 C215.00,442.01 209.92,431.74 209.30,432.37 C208.23,433.44 206.00,430.85 206.00,428.53 C206.00,427.31 205.06,425.46 203.92,424.43 C201.96,422.66 201.78,422.65 200.87,424.27 C199.57,426.60 196.36,426.47 195.73,424.06 C195.12,421.74 195.71,421.00 198.17,421.00 C200.39,421.00 200.57,417.66 198.55,414.01 L 197.17 411.52 L 195.47 415.79 C194.13,419.14 193.48,419.81 192.43,418.94 C190.15,417.05 191.72,422.64 196.47,433.23 C209.46,462.23 237.78,484.50 269.69,494.06 C240.84,485.63 217.46,468.08 196.60,439.40 C193.90,435.69 191.22,431.40 190.64,429.86 C190.06,428.32 188.90,426.79 188.07,426.47 C187.24,426.16 186.87,426.20 187.25,426.58 C188.24,427.58 186.17,431.00 184.56,431.00 C183.81,431.00 182.76,429.75 182.23,428.22 C181.05,424.84 177.45,424.16 176.67,427.16 C176.43,428.06 176.65,429.51 177.24,431.37 C163.53,399.28 162.19,362.20 175.97,327.50 C179.02,319.83 185.63,307.00 186.53,307.00 C187.00,307.00 184.36,313.48 182.87,316.00 C182.38,316.83 181.50,318.62 180.91,320.00 C180.32,321.38 178.97,324.16 177.92,326.20 C176.86,328.23 176.00,331.21 176.00,332.83 C176.00,334.44 175.29,337.44 174.43,339.51 C173.57,341.57 172.97,345.11 173.11,347.38 C173.24,349.65 172.77,353.88 172.06,356.79 C170.74,362.26 171.35,371.00 173.06,371.00 C173.58,371.00 174.00,371.62 174.00,372.38 C174.00,373.14 175.12,373.98 176.50,374.24 C178.99,374.72 179.90,373.67 178.00,372.50 C177.45,372.16 177.00,371.43 177.00,370.88 C177.00,370.33 177.41,370.13 177.90,370.44 C178.40,370.74 179.54,367.51 180.45,363.25 C183.20,350.38 185.71,342.85 191.35,330.88 C190.20,333.60 189.20,336.31 188.35,339.00 C184.85,350.09 182.55,372.00 184.89,372.00 C185.38,372.00 186.67,370.11 187.75,367.81 ZM 1127.87 427.95 C1117.52,429.63 1110.66,428.65 1102.03,424.25 C1095.94,421.15 1091.37,415.07 1090.34,408.68 L 1089.74 405.00 L 1101.50 405.00 L 1103.52 409.25 C1106.31,415.11 1112.08,418.01 1120.96,417.98 C1132.03,417.96 1138.90,412.30 1136.42,405.26 C1135.07,401.40 1129.38,398.63 1116.55,395.56 C1102.44,392.19 1097.50,389.71 1094.41,384.44 C1090.08,377.04 1091.98,366.54 1098.57,361.51 C1104.01,357.37 1109.31,356.00 1119.88,356.01 C1127.86,356.02 1130.36,356.42 1134.54,358.37 C1140.43,361.11 1144.48,365.52 1146.11,370.97 C1147.84,376.74 1146.95,378.00 1141.11,378.00 C1136.31,378.00 1136.08,377.86 1133.82,373.75 C1130.51,367.71 1126.28,365.76 1117.66,366.31 C1109.21,366.85 1105.64,369.09 1105.20,374.13 C1104.71,379.83 1107.82,381.76 1124.66,386.17 C1140.02,390.20 1144.71,392.60 1147.42,397.84 C1151.15,405.06 1150.13,413.50 1144.80,419.57 C1140.74,424.19 1135.73,426.68 1127.87,427.95 ZM 409.86 380.50 C410.14,372.21 410.64,367.52 411.07,369.00 C411.72,371.23 411.81,371.11 411.90,367.93 C412.00,364.41 412.05,364.37 416.25,364.43 C420.39,364.50 420.51,364.41 420.83,361.00 C421.64,352.50 412.86,322.78 409.50,322.64 C408.95,322.62 406.43,325.18 403.88,328.34 L 402.00 330.68 C406.38,324.87 420.18,310.00 421.19,310.00 C422.17,310.00 431.00,327.88 431.00,329.87 C431.00,332.09 429.17,330.95 427.10,327.44 C425.94,325.49 425.00,322.98 425.00,321.87 C425.00,320.76 423.63,318.48 421.96,316.80 L 418.91 313.76 L 414.92 318.08 L 410.94 322.40 L 414.38 330.45 C417.56,337.88 419.73,344.78 423.37,359.00 C424.14,362.02 425.50,367.12 426.39,370.32 C427.28,373.53 428.12,377.69 428.26,379.57 C428.53,383.42 430.70,384.22 431.44,380.75 C431.71,379.51 432.11,377.60 432.35,376.50 C432.66,375.03 432.80,375.21 432.88,377.19 C432.95,378.67 433.45,380.16 434.00,380.50 C435.79,381.61 435.09,371.30 433.01,366.04 C431.39,361.91 431.29,361.00 432.47,361.00 C433.65,361.00 433.81,359.44 433.37,352.25 C433.08,347.44 432.42,342.20 431.92,340.60 C430.77,336.98 430.74,334.00 431.84,334.00 C433.18,334.00 436.90,348.88 438.64,361.20 C440.71,375.85 439.47,400.37 436.28,408.00 C435.94,408.83 435.54,410.45 435.40,411.61 C435.14,413.73 433.81,418.02 431.99,422.89 C431.94,422.39 431.51,422.00 431.00,422.00 C430.45,422.00 430.00,422.45 430.00,423.00 C430.00,423.55 430.45,424.00 431.00,424.00 C431.26,424.00 431.50,423.90 431.68,423.73 C431.26,424.83 430.83,425.96 430.37,427.09 C430.78,425.42 430.40,424.74 429.52,424.02 C428.26,422.97 428.00,423.04 428.00,424.44 C428.00,425.36 427.55,425.84 427.00,425.50 C426.45,425.16 426.00,425.36 426.00,425.94 C426.00,426.52 424.29,427.00 422.19,427.00 C417.96,427.00 415.82,428.22 413.24,432.11 C407.68,440.48 403.12,446.90 398.72,452.34 C398.90,452.05 399.00,451.84 399.00,451.71 C399.00,451.24 400.38,448.85 402.07,446.40 C403.76,443.94 406.85,438.46 408.94,434.22 C414.17,423.59 416.81,410.43 412.54,416.28 C411.41,417.82 411.16,417.85 410.65,416.53 C410.33,415.69 409.37,415.00 408.53,415.00 C407.22,415.00 406.85,415.89 407.04,418.54 C407.06,418.84 405.26,420.83 403.04,422.96 C400.82,425.10 399.00,427.58 399.00,428.49 C399.00,430.10 395.20,435.29 389.75,441.13 C388.24,442.74 387.00,444.73 387.00,445.53 C387.00,446.34 386.61,447.00 386.13,447.00 C385.65,447.00 383.29,448.91 380.87,451.25 C371.95,459.87 370.78,460.26 378.35,452.09 C387.99,441.69 393.00,434.38 398.56,422.62 C403.68,411.81 407.01,399.78 408.28,387.96 C408.16,391.35 407.98,393.99 407.77,395.00 C407.15,397.95 407.22,398.19 408.21,396.50 C408.88,395.36 409.58,388.50 409.86,380.50 ZM 1170.28 381.96 L 1169.73 386.04 L 1189.10 385.77 C1202.84,385.58 1207.97,385.54 1208.93,383.53 C1209.50,382.33 1208.60,380.43 1207.16,377.39 L 1207.02 377.10 C1204.25,371.26 1199.12,367.29 1193.17,366.40 C1181.84,364.70 1171.67,371.61 1170.28,381.96 ZM 1105.90 421.33 L 1108.31 424.16 L 1120.45 423.77 C1132.44,423.38 1132.66,423.33 1138.65,419.64 C1144.90,415.78 1147.00,412.29 1147.00,405.77 C1147.00,402.31 1137.80,393.00 1134.38,393.00 C1133.00,393.00 1129.69,392.06 1127.02,390.91 C1122.14,388.81 1118.54,388.63 1118.76,390.50 C1118.83,391.05 1120.45,391.87 1122.37,392.33 C1124.29,392.79 1128.25,394.39 1131.18,395.90 C1135.90,398.32 1136.61,399.10 1137.44,402.81 C1138.21,406.25 1138.80,407.00 1140.69,407.00 C1143.95,407.00 1143.60,409.37 1139.75,413.36 C1134.85,418.44 1132.17,419.78 1124.50,421.00 C1117.31,422.15 1111.92,421.38 1106.07,418.36 C1104.74,417.67 1103.27,417.33 1102.82,417.61 C1102.37,417.89 1102.00,417.41 1102.00,416.54 C1102.00,415.67 1100.88,414.44 1099.50,413.82 C1097.87,413.08 1097.00,411.86 1097.00,410.34 C1097.00,408.97 1096.40,408.00 1095.56,408.00 C1093.09,408.00 1093.03,409.46 1095.31,414.31 C1097.26,418.48 1097.82,418.96 1100.50,418.74 C1102.74,418.56 1104.11,419.22 1105.90,421.33 ZM 1077.09 412.00 L 1076.50 426.50 L 1069.46 426.79 C1065.58,426.95 1062.09,426.76 1061.71,426.37 C1061.32,425.98 1061.00,422.59 1061.00,418.83 L 1061.00 412.00 ZM 1178.00 422.57 C1182.13,424.09 1188.00,424.39 1188.00,423.08 C1188.00,422.57 1186.54,421.85 1184.75,421.48 C1176.18,419.68 1167.53,410.89 1165.10,401.50 C1163.27,394.41 1161.90,391.00 1160.88,391.00 C1159.21,391.00 1160.02,398.50 1162.00,401.50 C1163.09,403.15 1163.99,406.08 1164.00,408.00 C1164.02,414.13 1168.90,419.21 1178.00,422.57 ZM 1203.50 390.00 C1203.11,390.63 1205.66,391.00 1210.44,391.00 C1210.71,391.00 1210.96,391.00 1211.21,391.00 C1214.87,391.00 1216.76,391.01 1217.51,390.08 C1218.32,389.10 1217.83,387.05 1216.81,382.81 C1216.74,382.54 1216.68,382.27 1216.61,381.98 C1214.36,372.58 1208.08,363.27 1204.83,364.51 C1202.45,365.42 1203.72,368.64 1206.99,370.00 C1209.27,370.94 1209.92,371.98 1210.46,375.56 C1210.82,377.97 1211.54,380.22 1212.06,380.54 C1212.58,380.86 1213.00,382.10 1212.99,383.31 C1212.99,385.49 1208.36,389.00 1205.48,389.00 C1204.73,389.00 1203.84,389.45 1203.50,390.00 ZM 1195.50 363.50 C1196.60,364.27 1197.95,364.91 1198.50,364.93 C1200.40,365.00 1202.07,363.33 1201.52,361.91 C1200.91,360.34 1194.34,357.97 1190.77,358.04 C1187.10,358.12 1178.63,360.61 1178.26,361.72 C1177.70,363.39 1180.96,364.09 1183.32,362.82 C1186.12,361.32 1192.92,361.70 1195.50,363.50 ZM 1103.35 364.52 C1102.75,366.08 1102.93,366.09 1105.80,364.60 C1107.51,363.72 1109.96,363.00 1111.26,363.00 C1112.56,363.00 1114.49,362.34 1115.56,361.53 C1118.16,359.57 1119.73,359.64 1122.56,361.87 C1124.04,363.03 1125.89,363.55 1127.48,363.25 C1135.05,361.80 1127.65,358.06 1118.00,358.46 C1112.48,358.68 1104.00,361.09 1104.00,362.43 C1104.00,362.65 1103.71,363.59 1103.35,364.52 ZM 1164.00 378.59 C1164.00,381.15 1164.35,381.80 1165.50,381.36 C1167.02,380.78 1167.16,380.40 1167.38,376.10 C1167.45,374.76 1168.19,373.59 1169.06,373.46 C1169.91,373.34 1172.04,371.81 1173.79,370.06 C1176.84,367.00 1177.41,365.17 1175.69,363.90 C1174.57,363.08 1169.91,364.05 1170.49,364.98 C1170.74,365.39 1170.06,366.54 1168.98,367.52 C1167.89,368.51 1167.00,370.09 1167.00,371.03 C1167.00,371.98 1166.32,373.32 1165.50,374.00 C1164.68,374.68 1164.00,376.75 1164.00,378.59 ZM 1106.00 388.79 C1109.41,390.93 1115.00,391.81 1115.00,390.20 C1115.00,388.77 1112.65,387.00 1110.75,387.00 C1109.74,387.00 1107.80,385.90 1106.45,384.55 C1105.10,383.20 1104.00,382.31 1104.00,382.58 C1104.00,382.85 1102.99,382.51 1101.75,381.83 C1098.06,379.81 1097.35,380.04 1097.80,383.12 C1098.04,384.70 1098.85,386.06 1099.61,386.12 C1101.94,386.33 1102.38,386.52 1106.00,388.79 ZM 1064.50 421.25 C1063.88,422.77 1064.40,423.00 1068.36,423.00 C1071.91,423.00 1072.81,422.68 1072.39,421.58 C1072.09,420.80 1072.36,419.19 1072.99,418.01 C1074.44,415.31 1072.79,413.00 1069.42,413.00 C1067.65,413.00 1066.87,413.78 1066.16,416.25 C1065.64,418.04 1064.89,420.29 1064.50,421.25 ZM 1204.00 419.00 C1203.09,420.70 1203.24,421.00 1205.01,421.00 C1206.15,421.00 1208.08,419.91 1209.30,418.59 C1215.44,411.87 1217.01,408.50 1214.01,408.50 C1213.20,408.50 1211.96,409.69 1211.26,411.13 C1210.57,412.58 1208.89,414.50 1207.54,415.38 C1206.18,416.27 1204.59,417.90 1204.00,419.00 ZM 1136.26 370.13 C1138.53,373.20 1142.00,374.00 1142.00,371.45 C1142.00,370.11 1135.13,362.00 1134.92,363.10 C1134.88,363.32 1134.69,364.35 1134.49,365.38 C1134.30,366.42 1135.09,368.56 1136.26,370.13 ZM 1168.25 390.97 C1171.08,392.11 1171.48,392.14 1173.42,391.39 C1175.63,390.55 1175.40,389.00 1173.06,389.00 C1171.99,389.00 1170.84,388.55 1170.50,388.00 C1169.52,386.42 1166.00,386.83 1166.00,388.53 C1166.00,389.37 1167.01,390.47 1168.25,390.97 ZM 1099.00 377.00 C1099.00,378.10 1099.18,379.00 1099.40,379.00 C1099.63,379.00 1099.83,376.72 1099.85,373.94 C1099.88,369.71 1099.61,368.93 1098.19,369.20 C1095.93,369.63 1095.23,375.00 1097.43,375.00 C1098.33,375.00 1099.00,375.85 1099.00,377.00 ZM 172.93 412.25 C172.88,408.11 172.62,407.06 172.00,408.50 C171.49,409.68 171.11,409.92 171.07,409.08 C171.03,408.30 170.81,407.86 170.57,408.10 C170.06,408.60 171.97,418.00 172.58,418.00 C172.81,418.00 172.97,415.41 172.93,412.25 ZM 242.04 500.32 C254.46,506.47 268.12,510.90 283.00,513.58 C266.75,510.65 254.59,506.73 242.04,500.32 ZM 407.61 362.87 C406.50,356.22 404.74,348.82 402.92,343.31 C405.27,349.73 406.77,355.95 407.61,362.87 ZM 395.38 456.31 C390.92,461.40 386.41,465.72 380.96,470.28 C385.72,466.11 391.65,460.34 395.38,456.31 ZM 200.17 314.10 C205.14,305.90 210.38,299.50 217.57,292.45 C211.07,298.82 205.13,306.26 200.17,314.10 ZM 186.30 448.93 C190.15,455.01 194.78,461.44 199.51,467.01 C200.17,467.80 200.85,468.58 201.54,469.35 C195.80,462.98 190.71,456.14 186.30,448.93 ZM 393.35 480.63 C376.05,496.00 354.84,506.70 330.52,512.11 C354.79,506.71 376.04,495.98 393.35,480.63 ZM 393.35 480.63 C404.73,470.52 414.42,458.38 422.19,444.40 C414.48,458.35 404.78,470.49 393.35,480.63 ZM 199.05 357.87 C199.20,356.56 199.63,354.67 200.26,352.45 C199.80,354.25 199.40,356.05 199.05,357.87 ZM 400.49 337.12 L 399.26 334.34 L 399.33 334.25 ZM 426.49 436.06 C426.13,436.83 425.76,437.58 425.41,438.29 C424.38,440.37 423.30,442.40 422.19,444.40 C423.27,442.46 424.30,440.49 425.29,438.49 C425.72,437.62 426.12,436.81 426.49,436.06 ZM 208.52 331.07 C208.70,330.71 208.88,330.35 209.06,330.00 C222.67,303.46 247.44,283.64 276.74,275.86 C247.44,283.64 222.65,303.47 209.07,330.00 C208.88,330.36 208.70,330.72 208.52,331.07 Z" fill="rgb(195,123,58)"/>
<path d="M 200.17 314.10 C196.71,319.57 193.72,325.24 191.35,330.88 C185.71,342.85 183.20,350.38 180.45,363.25 C179.54,367.51 178.40,370.74 177.90,370.44 C177.41,370.13 177.00,370.33 177.00,370.88 C177.00,371.43 177.45,372.16 178.00,372.50 C179.90,373.67 178.99,374.72 176.50,374.24 C175.12,373.98 174.00,373.14 174.00,372.38 C174.00,371.62 173.58,371.00 173.06,371.00 C171.35,371.00 170.74,362.26 172.06,356.79 C172.77,353.88 173.24,349.65 173.11,347.38 C172.97,345.11 173.57,341.57 174.43,339.51 C175.29,337.44 176.00,334.44 176.00,332.83 C176.00,331.21 176.86,328.23 177.92,326.20 C178.97,324.16 180.32,321.38 180.91,320.00 C181.50,318.62 182.38,316.83 182.87,316.00 C184.36,313.48 187.00,307.00 186.53,307.00 C186.49,307.00 186.43,307.03 186.36,307.09 C188.08,304.58 188.93,304.37 190.93,304.60 C192.57,304.79 194.18,304.51 194.52,303.98 C194.85,303.44 194.64,303.00 194.06,303.00 C192.92,303.00 192.63,299.13 193.58,296.64 C193.90,295.81 194.80,295.37 195.57,295.66 C196.46,296.00 197.36,295.18 198.03,293.43 C198.60,291.91 199.85,290.03 200.79,289.26 C201.73,288.48 201.94,288.14 201.25,288.48 C199.17,289.54 199.83,288.53 203.25,285.44 C206.37,282.61 206.40,282.60 204.07,285.25 C201.83,287.80 202.32,289.28 204.63,286.97 C205.95,285.65 206.12,288.99 204.82,290.65 C204.32,291.29 204.21,292.99 204.57,294.44 C205.07,296.43 204.70,297.53 203.03,298.97 C200.49,301.18 200.66,304.19 203.35,304.58 C204.47,304.75 208.24,301.70 214.36,295.69 C208.76,301.53 204.37,307.17 200.17,314.10 ZM 432.88 335.61 C432.47,334.58 432.11,334.00 431.84,334.00 C430.74,334.00 430.77,336.98 431.92,340.60 C432.42,342.20 433.08,347.44 433.37,352.25 C433.81,359.44 433.65,361.00 432.47,361.00 C431.29,361.00 431.39,361.91 433.01,366.04 C435.09,371.30 435.79,381.61 434.00,380.50 C433.45,380.16 432.95,378.67 432.88,377.19 C432.80,375.21 432.66,375.03 432.35,376.50 C432.11,377.60 431.71,379.51 431.44,380.75 C430.70,384.22 428.53,383.42 428.26,379.57 C428.12,377.69 427.28,373.53 426.39,370.32 C425.50,367.12 424.14,362.02 423.37,359.00 C419.73,344.78 417.56,337.88 414.38,330.45 L 410.94 322.40 L 414.92 318.08 L 418.91 313.76 L 421.96 316.80 C423.63,318.48 425.00,320.76 425.00,321.87 C425.00,322.98 425.94,325.49 427.10,327.44 C429.10,330.83 430.88,332.01 430.99,330.07 C431.66,331.90 432.29,333.74 432.88,335.61 ZM 395.38 456.31 C391.65,460.34 385.72,466.11 380.96,470.28 C379.90,471.17 378.79,472.07 377.65,472.99 C379.28,471.53 380.97,469.81 383.38,467.26 C387.22,463.19 387.23,463.15 384.61,463.44 C382.18,463.71 378.58,466.03 376.77,468.50 C376.29,469.15 376.03,469.11 376.02,468.40 C376.01,467.80 376.91,466.49 378.02,465.48 C379.38,464.25 379.72,463.32 379.04,462.64 C377.58,461.18 374.10,461.11 374.66,462.55 C375.43,464.57 371.69,465.30 370.30,463.39 C369.20,461.89 370.04,460.63 376.80,453.59 C386.43,443.54 392.44,435.17 397.73,424.37 C392.48,435.12 387.50,442.21 378.35,452.09 C370.78,460.26 371.95,459.87 380.87,451.25 C383.29,448.91 385.65,447.00 386.13,447.00 C386.61,447.00 387.00,446.34 387.00,445.53 C387.00,444.73 388.24,442.74 389.75,441.13 C395.20,435.29 399.00,430.10 399.00,428.49 C399.00,427.58 400.82,425.10 403.04,422.96 C405.26,420.83 407.06,418.84 407.04,418.54 C406.85,415.89 407.22,415.00 408.53,415.00 C409.37,415.00 410.33,415.69 410.65,416.53 C411.16,417.85 411.41,417.82 412.54,416.28 C416.81,410.43 414.17,423.59 408.94,434.22 C406.85,438.46 403.76,443.94 402.07,446.40 C400.38,448.85 399.00,451.24 399.00,451.71 C399.00,451.84 398.90,452.05 398.72,452.34 C397.60,453.72 396.49,455.04 395.38,456.31 ZM 228.90 473.25 C214.87,462.48 203.45,448.83 196.47,433.23 C191.72,422.64 190.15,417.05 192.43,418.94 C193.48,419.81 194.13,419.14 195.47,415.79 L 197.17 411.52 L 198.55 414.01 C200.57,417.66 200.39,421.00 198.17,421.00 C195.71,421.00 195.12,421.74 195.73,424.06 C196.36,426.47 199.57,426.60 200.87,424.27 C201.78,422.65 201.96,422.66 203.92,424.43 C205.06,425.46 206.00,427.31 206.00,428.53 C206.00,430.85 208.23,433.44 209.30,432.37 C209.92,431.74 215.00,442.01 215.00,443.90 C215.00,444.47 216.09,445.51 217.43,446.22 C218.76,446.92 222.59,450.13 225.94,453.35 C236.37,463.39 239.91,464.91 231.87,456.35 C232.21,456.69 232.55,457.02 232.89,457.35 C237.34,461.67 240.23,464.92 239.30,464.56 C237.72,463.96 237.72,464.04 239.31,465.79 C240.24,466.82 241.00,467.90 241.00,468.19 C241.00,468.91 237.92,468.55 235.75,467.57 C234.79,467.14 232.94,466.72 231.63,466.64 C230.32,466.57 229.43,466.03 229.65,465.46 C229.87,464.89 229.24,464.43 228.25,464.43 C226.88,464.43 226.47,465.18 226.53,467.63 C226.60,470.00 226.99,471.43 228.90,473.25 ZM 1105.90 421.33 C1104.11,419.22 1102.74,418.56 1100.50,418.74 C1097.82,418.96 1097.26,418.48 1095.31,414.31 C1093.03,409.46 1093.09,408.00 1095.56,408.00 C1096.40,408.00 1097.00,408.97 1097.00,410.34 C1097.00,411.86 1097.87,413.08 1099.50,413.82 C1100.88,414.44 1102.00,415.67 1102.00,416.54 C1102.00,417.41 1102.37,417.89 1102.82,417.61 C1103.27,417.33 1104.74,417.67 1106.07,418.36 C1111.92,421.38 1117.31,422.15 1124.50,421.00 C1132.17,419.78 1134.85,418.44 1139.75,413.36 C1143.60,409.37 1143.95,407.00 1140.69,407.00 C1138.80,407.00 1138.21,406.25 1137.44,402.81 C1136.61,399.10 1135.90,398.32 1131.18,395.90 C1128.25,394.39 1124.29,392.79 1122.37,392.33 C1120.45,391.87 1118.83,391.05 1118.76,390.50 C1118.54,388.63 1122.14,388.81 1127.02,390.91 C1129.69,392.06 1133.00,393.00 1134.38,393.00 C1137.80,393.00 1147.00,402.31 1147.00,405.77 C1147.00,412.29 1144.90,415.78 1138.65,419.64 C1132.66,423.33 1132.44,423.38 1120.45,423.77 L 1108.31 424.16 ZM 1178.00 422.57 C1168.90,419.21 1164.02,414.13 1164.00,408.00 C1163.99,406.08 1163.09,403.15 1162.00,401.50 C1160.02,398.50 1159.21,391.00 1160.88,391.00 C1161.90,391.00 1163.27,394.41 1165.10,401.50 C1167.53,410.89 1176.18,419.68 1184.75,421.48 C1186.54,421.85 1188.00,422.57 1188.00,423.08 C1188.00,424.39 1182.13,424.09 1178.00,422.57 ZM 1203.50 390.00 C1203.84,389.45 1204.73,389.00 1205.48,389.00 C1208.36,389.00 1212.99,385.49 1212.99,383.31 C1213.00,382.10 1212.58,380.86 1212.06,380.54 C1211.54,380.22 1210.82,377.97 1210.46,375.56 C1209.92,371.98 1209.27,370.94 1206.99,370.00 C1203.72,368.64 1202.45,365.42 1204.83,364.51 C1208.08,363.27 1214.36,372.58 1216.61,381.98 C1216.68,382.27 1216.74,382.54 1216.81,382.81 C1217.83,387.05 1218.32,389.10 1217.51,390.08 C1216.76,391.01 1214.87,391.00 1211.21,391.00 C1210.96,391.00 1210.71,391.00 1210.44,391.00 C1205.66,391.00 1203.11,390.63 1203.50,390.00 ZM 1195.50 363.50 C1192.92,361.70 1186.12,361.32 1183.32,362.82 C1180.96,364.09 1177.70,363.39 1178.26,361.72 C1178.63,360.61 1187.10,358.12 1190.77,358.04 C1194.34,357.97 1200.91,360.34 1201.52,361.91 C1202.07,363.33 1200.40,365.00 1198.50,364.93 C1197.95,364.91 1196.60,364.27 1195.50,363.50 ZM 1103.35 364.52 C1103.71,363.59 1104.00,362.65 1104.00,362.43 C1104.00,361.09 1112.48,358.68 1118.00,358.46 C1127.65,358.06 1135.05,361.80 1127.48,363.25 C1125.89,363.55 1124.04,363.03 1122.56,361.87 C1119.73,359.64 1118.16,359.57 1115.56,361.53 C1114.49,362.34 1112.56,363.00 1111.26,363.00 C1109.96,363.00 1107.51,363.72 1105.80,364.60 C1102.93,366.09 1102.75,366.08 1103.35,364.52 ZM 1164.00 378.59 C1164.00,376.75 1164.68,374.68 1165.50,374.00 C1166.32,373.32 1167.00,371.98 1167.00,371.03 C1167.00,370.09 1167.89,368.51 1168.98,367.52 C1170.06,366.54 1170.74,365.39 1170.49,364.98 C1169.91,364.05 1174.57,363.08 1175.69,363.90 C1177.41,365.17 1176.84,367.00 1173.79,370.06 C1172.04,371.81 1169.91,373.34 1169.06,373.46 C1168.19,373.59 1167.45,374.76 1167.38,376.10 C1167.16,380.40 1167.02,380.78 1165.50,381.36 C1164.35,381.80 1164.00,381.15 1164.00,378.59 ZM 1106.00 388.79 C1102.38,386.52 1101.94,386.33 1099.61,386.12 C1098.85,386.06 1098.04,384.70 1097.80,383.12 C1097.35,380.04 1098.06,379.81 1101.75,381.83 C1102.99,382.51 1104.00,382.85 1104.00,382.58 C1104.00,382.31 1105.10,383.20 1106.45,384.55 C1107.80,385.90 1109.74,387.00 1110.75,387.00 C1112.65,387.00 1115.00,388.77 1115.00,390.20 C1115.00,391.81 1109.41,390.93 1106.00,388.79 ZM 1064.50 421.25 C1064.89,420.29 1065.64,418.04 1066.16,416.25 C1066.87,413.78 1067.65,413.00 1069.42,413.00 C1072.79,413.00 1074.44,415.31 1072.99,418.01 C1072.36,419.19 1072.09,420.80 1072.39,421.58 C1072.81,422.68 1071.91,423.00 1068.36,423.00 C1064.40,423.00 1063.88,422.77 1064.50,421.25 ZM 1204.00 419.00 C1204.59,417.90 1206.18,416.27 1207.54,415.38 C1208.89,414.50 1210.57,412.58 1211.26,411.13 C1211.96,409.69 1213.20,408.50 1214.01,408.50 C1217.01,408.50 1215.44,411.87 1209.30,418.59 C1208.08,419.91 1206.15,421.00 1205.01,421.00 C1203.24,421.00 1203.09,420.70 1204.00,419.00 ZM 1136.26 370.13 C1135.09,368.56 1134.30,366.42 1134.49,365.38 C1134.69,364.35 1134.88,363.32 1134.92,363.10 C1135.13,362.00 1142.00,370.11 1142.00,371.45 C1142.00,374.00 1138.53,373.20 1136.26,370.13 ZM 1168.25 390.97 C1167.01,390.47 1166.00,389.37 1166.00,388.53 C1166.00,386.83 1169.52,386.42 1170.50,388.00 C1170.84,388.55 1171.99,389.00 1173.06,389.00 C1175.40,389.00 1175.63,390.55 1173.42,391.39 C1171.48,392.14 1171.08,392.11 1168.25,390.97 ZM 1099.00 377.00 C1099.00,375.85 1098.33,375.00 1097.43,375.00 C1095.23,375.00 1095.93,369.63 1098.19,369.20 C1099.61,368.93 1099.88,369.71 1099.85,373.94 C1099.83,376.72 1099.63,379.00 1099.40,379.00 C1099.18,379.00 1099.00,378.10 1099.00,377.00 ZM 220.96 463.45 C222.52,465.33 223.43,465.40 224.78,463.75 C225.97,462.29 224.55,460.68 221.61,460.17 C219.77,459.86 218.03,461.47 218.03,463.50 C218.03,464.05 218.40,463.92 218.85,463.20 C219.51,462.17 219.94,462.22 220.96,463.45 ZM 372.00 460.11 C372.00,461.39 372.58,461.21 374.02,459.48 C375.08,458.20 375.01,458.06 373.64,458.58 C372.74,458.93 372.00,459.62 372.00,460.11 ZM 359.37 485.07 C357.24,486.26 355.10,487.39 353.00,488.44 C351.03,489.42 347.79,490.64 344.02,491.88 C349.24,489.99 354.37,487.72 359.37,485.07 ZM 197.49 380.50 C197.81,392.25 199.86,403.32 203.67,413.80 C199.69,403.22 197.83,392.98 197.49,380.50 ZM 439.47 386.33 C439.80,379.19 439.70,371.56 439.10,365.13 C439.76,371.47 439.96,377.67 439.65,383.50 C439.60,384.44 439.54,385.39 439.47,386.33 ZM 326.81 496.69 C325.51,496.98 324.28,497.23 323.14,497.45 C318.15,498.37 312.09,498.87 305.84,498.95 C312.87,498.82 319.89,498.06 326.81,496.69 ZM 240.24 274.70 C252.32,267.32 265.57,262.30 281.50,258.84 C265.78,262.25 252.33,267.38 240.24,274.70 ZM 186.30 448.93 C190.71,456.14 195.80,462.98 201.54,469.35 C202.20,470.09 202.87,470.83 203.55,471.56 C196.49,464.08 190.36,455.90 185.23,447.20 C185.58,447.78 185.94,448.35 186.30,448.93 ZM 221.73 445.20 C217.33,439.90 213.93,434.94 210.85,429.34 C213.93,434.78 217.56,440.07 221.73,445.20 ZM 295.70 498.71 C290.90,498.42 286.27,497.88 282.21,497.09 C280.32,496.72 278.46,496.32 276.62,495.89 C282.93,497.34 289.31,498.28 295.70,498.71 ZM 177.35 431.68 C173.20,422.03 170.18,411.92 168.35,401.56 C170.17,411.81 173.16,421.81 177.24,431.37 C177.28,431.47 177.31,431.58 177.35,431.68 ZM 426.54 319.35 C424.19,314.58 421.68,310.00 421.19,310.00 C421.70,310.00 424.09,314.16 426.49,319.25 ZM 402.35 341.76 C402.54,342.28 402.74,342.79 402.92,343.31 C403.62,345.43 404.32,347.83 404.97,350.37 C404.13,347.30 403.17,344.15 402.35,341.76 ZM 438.43 359.74 C437.87,356.09 437.17,352.28 436.42,348.74 C437.23,352.40 437.90,356.09 438.43,359.74 ZM 400.40 418.50 C399.82,419.89 399.20,421.27 398.56,422.62 C399.21,421.25 399.82,419.88 400.40,418.50 ZM 408.28 387.91 L 408.28 387.96 C408.27,388.09 408.25,388.22 408.24,388.35 C408.25,388.21 408.27,388.06 408.28,387.91 Z" fill="rgb(206,128,55)"/>
<path d="M 376.58 287.65 L 380.32 284.33 L 373.91 279.80 C359.99,269.95 343.84,262.93 326.77,259.32 C316.58,257.16 290.49,256.88 281.50,258.84 C265.78,262.25 252.33,267.38 240.24,274.70 C232.17,279.59 224.70,285.46 217.57,292.45 C216.45,293.54 215.38,294.62 214.36,295.69 C208.24,301.70 204.47,304.75 203.35,304.58 C200.66,304.19 200.49,301.18 203.03,298.97 C204.70,297.53 205.07,296.43 204.57,294.44 C204.21,292.99 204.32,291.29 204.82,290.65 C206.12,288.99 205.95,285.65 204.63,286.97 C202.32,289.28 201.83,287.80 204.07,285.25 C206.40,282.60 206.37,282.61 203.25,285.44 C199.83,288.53 199.17,289.54 201.25,288.48 C201.94,288.14 201.73,288.48 200.79,289.26 C199.85,290.03 198.60,291.91 198.03,293.43 C197.36,295.18 196.46,296.00 195.57,295.66 C194.80,295.37 193.90,295.81 193.58,296.64 C192.63,299.13 192.92,303.00 194.06,303.00 C194.64,303.00 194.85,303.44 194.52,303.98 C194.18,304.51 192.57,304.79 190.93,304.60 C188.93,304.37 188.08,304.58 186.36,307.09 C186.33,307.11 186.31,307.14 186.28,307.17 C187.87,304.46 189.00,302.37 189.00,302.05 C189.00,301.63 190.01,300.19 191.25,298.84 C192.49,297.49 194.82,294.48 196.43,292.14 C200.51,286.20 214.44,273.24 223.91,266.57 C237.32,257.11 255.20,249.06 272.00,244.90 C280.54,242.79 283.71,242.55 303.50,242.58 C324.89,242.60 325.82,242.69 337.11,245.70 C350.40,249.24 361.91,253.99 372.87,260.45 C382.39,266.06 392.00,273.58 392.00,275.42 C392.00,276.66 382.92,284.00 381.38,284.00 C381.11,284.00 379.09,285.55 376.58,287.65 ZM 228.90 473.25 C226.99,471.43 226.60,470.00 226.53,467.63 C226.47,465.18 226.88,464.43 228.25,464.43 C229.24,464.43 229.87,464.89 229.65,465.46 C229.43,466.03 230.32,466.57 231.63,466.64 C232.94,466.72 234.79,467.14 235.75,467.57 C237.92,468.55 241.00,468.91 241.00,468.19 C241.00,467.90 240.24,466.82 239.31,465.79 C237.72,464.04 237.72,463.96 239.30,464.56 C240.23,464.92 237.34,461.67 232.89,457.35 C232.55,457.02 232.21,456.69 231.87,456.35 C231.44,455.89 230.97,455.40 230.47,454.88 C228.80,453.15 227.25,451.49 225.80,449.89 C234.32,459.02 244.49,466.52 256.18,472.27 C287.21,487.53 319.71,487.69 349.50,472.74 C370.50,462.20 386.83,445.50 396.98,425.87 C391.87,435.96 385.98,444.01 376.80,453.59 C370.04,460.63 369.20,461.89 370.30,463.39 C371.69,465.30 375.43,464.57 374.66,462.55 C374.10,461.11 377.58,461.18 379.04,462.64 C379.72,463.32 379.38,464.25 378.02,465.48 C376.91,466.49 376.01,467.80 376.02,468.40 C376.03,469.11 376.29,469.15 376.77,468.50 C378.58,466.03 382.18,463.71 384.61,463.44 C387.23,463.15 387.22,463.19 383.38,467.26 C380.97,469.81 379.28,471.53 377.65,472.99 C377.56,473.06 377.47,473.14 377.38,473.21 C372.58,477.05 366.04,481.34 359.37,485.07 C354.37,487.72 349.24,489.99 344.02,491.88 C338.64,493.66 332.19,495.48 326.81,496.69 C319.89,498.06 312.87,498.82 305.84,498.95 C302.47,498.99 299.04,498.91 295.70,498.71 C289.31,498.28 282.93,497.34 276.62,495.89 L 276.62 495.89 C274.27,495.34 271.97,494.73 269.69,494.06 C254.94,489.64 240.96,482.51 228.90,473.25 ZM 220.96 463.45 C219.94,462.22 219.51,462.17 218.85,463.20 C218.40,463.92 218.03,464.05 218.03,463.50 C218.03,461.47 219.77,459.86 221.61,460.17 C224.55,460.68 225.97,462.29 224.78,463.75 C223.43,465.40 222.52,465.33 220.96,463.45 ZM 372.00 460.11 C372.00,459.62 372.74,458.93 373.64,458.58 C375.01,458.06 375.08,458.20 374.02,459.48 C372.58,461.21 372.00,461.39 372.00,460.11 ZM 205.52 473.65 C197.16,465.16 190.04,455.72 184.25,445.59 C184.57,446.13 184.89,446.66 185.23,447.20 C190.36,455.90 196.49,464.08 203.55,471.56 C204.20,472.27 204.86,472.96 205.52,473.65 ZM 207.80 423.34 C209.52,426.93 211.41,430.39 213.46,433.70 C212.55,432.25 211.68,430.80 210.85,429.34 L 210.85 429.34 C209.68,427.21 208.55,424.99 207.43,422.63 C206.01,419.63 204.76,416.70 203.67,413.80 C203.46,413.22 203.25,412.64 203.05,412.05 C204.37,415.74 205.94,419.46 207.80,423.34 ZM 356.94 287.44 C357.55,287.79 358.16,288.15 358.76,288.52 C362.82,290.98 366.53,293.06 368.01,293.74 C367.90,293.75 367.81,293.75 367.74,293.72 C367.06,293.46 362.73,290.95 358.13,288.14 C357.73,287.91 357.34,287.67 356.94,287.44 ZM 177.35 431.68 C177.38,431.79 177.42,431.90 177.46,432.01 C174.19,424.43 171.61,416.57 169.77,408.51 C171.59,416.45 174.13,424.20 177.35,431.68 ZM 338.90 278.97 C334.10,277.25 329.13,275.85 324.00,274.78 C329.17,275.86 334.11,277.24 338.90,278.97 ZM 179.70 319.10 C178.93,320.70 178.19,322.32 177.50,323.86 C178.17,322.34 178.92,320.72 179.70,319.10 ZM 408.28 387.91 C408.27,388.06 408.25,388.21 408.24,388.35 L 408.24 388.35 C408.20,388.75 408.15,389.14 408.10,389.54 C408.17,388.95 408.23,388.36 408.29,387.76 Z" fill="rgb(217,144,73)"/>
<path d="M 0.00 378.00 L 0.00 0.00 L 693.50 0.00 L 1387.00 0.00 L 1387.00 378.00 L 1387.00 756.00 L 693.50 756.00 L 0.00 756.00 L 0.00 378.00 ZM 330.50 512.11 C373.10,502.65 406.18,476.92 425.41,438.29 C429.83,429.41 434.87,415.94 435.40,411.61 C435.54,410.45 435.94,408.83 436.28,408.00 C437.61,404.83 439.09,394.05 439.65,383.50 C440.72,363.30 435.69,338.73 426.49,319.25 C424.09,314.16 421.70,310.00 421.19,310.00 C420.17,310.00 406.14,325.14 401.88,330.83 L 399.26 334.34 L 401.20 338.73 C402.27,341.14 404.26,347.48 405.62,352.81 C417.70,400.04 394.18,450.31 349.50,472.74 C319.71,487.69 287.21,487.53 256.18,472.27 C234.61,461.66 218.23,445.09 207.80,423.34 C200.88,408.89 197.93,396.66 197.49,380.50 C196.96,361.35 200.16,347.40 209.07,330.00 C222.65,303.47 247.44,283.64 276.74,275.86 C288.63,272.71 311.52,272.18 324.00,274.78 C336.33,277.35 347.70,281.80 358.13,288.14 C362.73,290.95 367.06,293.46 367.74,293.72 C368.43,293.99 371.64,291.91 374.88,289.10 C378.12,286.30 381.05,284.00 381.38,284.00 C382.92,284.00 392.00,276.66 392.00,275.42 C392.00,273.58 382.39,266.06 372.87,260.45 C361.91,253.99 350.40,249.24 337.11,245.70 C325.82,242.69 324.89,242.60 303.50,242.58 C283.71,242.55 280.54,242.79 272.00,244.90 C255.20,249.06 237.32,257.11 223.91,266.57 C214.44,273.24 200.51,286.20 196.43,292.14 C194.82,294.48 192.49,297.49 191.25,298.84 C190.01,300.19 189.00,301.63 189.00,302.05 C189.00,302.47 187.00,306.05 184.57,310.00 C182.13,313.96 178.48,321.31 176.46,326.35 C149.97,392.32 177.00,465.87 240.00,499.26 C253.28,506.30 265.87,510.49 283.00,513.58 C293.64,515.50 318.75,514.72 330.50,512.11 ZM 315.18 440.00 C340.31,397.05 373.45,348.16 393.82,324.00 C416.14,297.53 436.80,279.30 462.58,263.31 C464.38,262.19 464.35,262.11 462.00,262.06 C456.48,261.94 440.74,265.15 432.37,268.10 C422.77,271.49 415.45,274.96 404.50,281.30 C374.01,298.98 338.86,334.63 309.89,377.26 L 303.25 387.02 L 300.45 383.26 C284.21,361.51 261.68,350.00 235.35,350.00 L 228.07 350.00 L 231.01 354.36 C235.16,360.50 237.63,366.69 240.54,378.18 C243.61,390.25 246.96,399.37 250.68,405.72 C254.49,412.22 263.36,420.86 270.98,425.49 C277.32,429.34 292.71,435.30 294.10,434.44 C295.23,433.74 290.28,418.64 285.92,409.44 C281.75,400.67 273.11,387.89 267.20,381.75 C265.22,379.69 263.96,378.00 264.41,378.00 C266.23,378.00 275.09,385.37 281.60,392.28 C293.67,405.12 300.82,419.88 304.86,440.33 C306.46,448.39 307.73,452.75 308.23,451.89 C308.68,451.12 311.80,445.77 315.18,440.00 ZM 603.22 425.77 C605.81,424.67 608.46,423.16 609.09,422.39 C610.84,420.28 611.83,420.71 612.18,423.75 L 612.50 426.50 L 622.37 426.79 L 632.25 427.08 L 631.51 424.29 C631.11,422.75 630.56,410.04 630.30,396.02 C629.80,369.64 629.49,367.61 625.13,362.64 C620.14,356.96 605.99,353.97 592.56,355.77 C583.21,357.02 577.46,359.49 572.97,364.19 C570.05,367.25 566.51,376.39 567.58,378.12 C567.87,378.61 572.15,379.00 577.08,379.00 L 586.05 379.00 L 586.66 375.97 C588.81,365.19 611.00,365.92 611.00,376.77 C611.00,381.64 607.46,383.45 593.33,385.76 C577.79,388.30 571.84,390.77 568.27,396.17 C565.21,400.80 564.25,408.15 566.00,413.63 C567.40,418.00 572.08,423.43 576.40,425.69 C583.23,429.26 594.84,429.29 603.22,425.77 ZM 720.75 426.41 C736.65,421.98 743.08,402.44 732.08,391.96 C728.24,388.31 724.56,386.93 708.05,382.99 C696.01,380.11 693.09,377.68 695.12,372.20 C696.14,369.46 699.74,368.00 705.52,368.00 C711.58,368.00 714.82,369.74 717.10,374.20 L 719.04 378.00 L 726.96 378.00 C731.32,378.00 735.11,377.64 735.38,377.19 C735.66,376.74 735.39,374.41 734.78,372.01 C733.25,366.02 726.02,358.62 720.00,356.90 C714.00,355.18 696.69,355.15 690.86,356.85 C676.03,361.16 670.12,378.03 679.81,388.36 C683.33,392.11 688.08,394.08 701.77,397.46 C715.27,400.79 718.24,402.70 717.80,407.82 C717.41,412.44 713.03,415.23 706.13,415.23 C698.78,415.23 692.00,410.58 692.00,405.54 C692.00,404.26 690.37,404.00 682.50,404.00 C677.28,404.00 673.00,404.37 673.00,404.82 C673.00,405.27 673.68,407.91 674.50,410.69 C678.79,425.13 699.74,432.25 720.75,426.41 ZM 787.57 427.91 C794.70,426.61 804.17,421.78 807.61,417.69 C820.61,402.24 819.34,376.58 804.92,363.62 C798.15,357.53 791.96,355.53 780.00,355.57 C771.78,355.59 769.67,355.97 764.37,358.38 C753.35,363.39 746.71,372.91 745.06,386.08 C742.36,407.53 754.13,424.65 773.87,427.98 C780.56,429.11 781.03,429.11 787.57,427.91 ZM 913.03 426.46 C921.06,423.85 927.50,416.74 930.44,407.25 C931.11,405.09 930.90,405.00 925.08,405.00 C919.15,405.00 919.00,405.07 917.62,408.37 C913.37,418.55 897.73,421.15 887.35,413.40 C884.02,410.92 880.61,404.66 879.64,399.27 L 879.06 396.03 L 905.28 395.77 L 931.50 395.50 L 931.31 388.46 C931.06,378.89 928.09,371.35 921.91,364.59 C915.80,357.90 910.84,356.00 899.57,356.00 C892.78,356.00 890.55,356.45 885.49,358.84 C872.55,364.97 866.15,377.85 867.25,395.54 C868.80,420.40 889.22,434.19 913.03,426.46 ZM 1127.87 427.95 C1135.73,426.68 1140.74,424.19 1144.80,419.57 C1150.13,413.50 1151.15,405.06 1147.42,397.84 C1144.71,392.60 1140.02,390.20 1124.66,386.17 C1107.82,381.76 1104.71,379.83 1105.20,374.13 C1105.64,369.09 1109.21,366.85 1117.66,366.31 C1126.28,365.76 1130.51,367.71 1133.82,373.75 C1136.08,377.86 1136.31,378.00 1141.11,378.00 C1146.95,378.00 1147.84,376.74 1146.11,370.97 C1144.48,365.52 1140.43,361.11 1134.54,358.37 C1130.36,356.42 1127.86,356.02 1119.88,356.01 C1109.31,356.00 1104.01,357.37 1098.57,361.51 C1091.98,366.54 1090.08,377.04 1094.41,384.44 C1097.50,389.71 1102.44,392.19 1116.55,395.56 C1129.38,398.63 1135.07,401.40 1136.42,405.26 C1138.90,412.30 1132.03,417.96 1120.96,417.98 C1112.08,418.01 1106.31,415.11 1103.52,409.25 L 1101.50 405.00 L 1095.62 405.00 L 1089.74 405.00 L 1090.34 408.68 C1091.37,415.07 1095.94,421.15 1102.03,424.25 C1110.66,428.65 1117.52,429.63 1127.87,427.95 ZM 1205.00 425.88 C1211.00,423.24 1215.73,418.59 1218.61,412.50 C1222.03,405.27 1221.91,405.00 1215.07,405.00 C1210.01,405.00 1209.04,405.30 1208.50,407.01 C1207.56,409.98 1203.16,414.87 1199.93,416.54 C1198.37,417.34 1194.45,418.00 1191.21,418.00 C1180.44,418.00 1172.05,411.13 1170.14,400.77 L 1169.26 396.03 L 1195.38 395.77 L 1221.50 395.50 L 1221.84 391.50 C1223.01,377.71 1213.73,361.82 1202.07,357.62 C1194.97,355.07 1181.36,355.68 1175.28,358.83 C1162.48,365.45 1156.10,378.23 1157.27,394.89 C1158.57,413.29 1168.16,425.19 1184.00,428.05 C1190.30,429.19 1199.68,428.22 1205.00,425.88 ZM 509.19 404.25 C509.58,378.94 510.32,375.44 515.87,372.57 C520.51,370.17 528.33,370.51 531.45,373.25 C535.12,376.48 536.00,382.93 536.00,406.67 L 536.00 427.08 L 545.25 426.79 L 554.50 426.50 L 554.50 398.50 C554.50,371.79 554.40,370.32 552.36,366.50 C548.04,358.45 542.62,355.68 531.00,355.57 C521.62,355.49 518.10,356.75 512.25,362.31 L 509.00 365.39 L 509.00 347.43 L 509.00 329.46 L 499.50 329.36 L 490.00 329.26 L 490.00 378.13 L 490.00 427.00 L 499.42 427.00 L 508.84 427.00 L 509.19 404.25 ZM 663.00 378.00 L 663.00 329.00 L 653.50 329.00 L 644.00 329.00 L 644.00 378.00 L 644.00 427.00 L 653.50 427.00 L 663.00 427.00 L 663.00 378.00 ZM 840.00 405.00 C840.49,383.75 840.53,383.44 843.25,378.82 C846.93,372.56 850.71,370.07 858.50,368.78 L 865.00 367.70 L 865.00 361.85 L 865.00 356.00 L 860.21 356.00 C853.61,356.00 847.32,359.38 843.00,365.26 L 839.50 370.02 L 839.20 363.51 L 838.91 357.00 L 833.12 357.00 L 827.34 357.00 L 827.24 391.21 C827.18,410.02 827.37,425.79 827.66,426.25 C827.94,426.72 830.72,426.96 833.84,426.80 L 839.50 426.50 L 840.00 405.00 ZM 955.02 403.00 C955.33,388.76 955.98,378.52 956.67,377.00 C957.97,374.12 962.40,369.81 965.92,368.00 C968.67,366.58 977.19,366.17 981.18,367.27 C982.66,367.67 984.91,369.47 986.18,371.25 C988.43,374.40 988.52,375.32 989.00,400.50 L 989.50 426.50 L 995.25 426.80 L 1001.00 427.10 L 1000.99 400.80 C1000.99,386.27 1000.54,372.88 999.98,370.88 C997.11,360.52 990.16,356.00 977.10,356.00 C967.11,356.00 961.71,358.10 957.00,363.82 L 954.00 367.46 L 954.00 362.23 L 954.00 357.00 L 948.00 357.00 L 942.00 357.00 L 942.00 391.33 C942.00,410.22 942.32,425.99 942.71,426.38 C943.10,426.77 945.91,426.96 948.96,426.79 L 954.50 426.50 L 955.02 403.00 ZM 1047.80 421.30 L 1048.10 416.11 L 1044.60 416.68 C1040.37,417.36 1036.68,416.54 1034.57,414.43 C1033.24,413.09 1033.00,409.48 1033.00,390.47 L 1033.00 368.09 L 1040.25 367.79 L 1047.50 367.50 L 1047.80 362.25 L 1048.10 357.00 L 1040.55 357.00 L 1033.00 357.00 L 1033.00 346.50 L 1033.00 336.00 L 1027.04 336.00 L 1021.07 336.00 L 1020.78 346.25 L 1020.50 356.50 L 1014.70 356.80 L 1008.90 357.10 L 1009.20 362.30 L 1009.50 367.50 L 1015.25 367.80 L 1021.00 368.10 L 1021.00 392.80 C1021.01,415.80 1021.15,417.73 1023.02,420.81 C1025.90,425.53 1030.00,427.00 1039.50,426.73 L 1047.50 426.50 L 1047.80 421.30 ZM 1076.79 419.25 L 1077.09 412.00 L 1069.04 412.00 L 1061.00 412.00 L 1061.00 418.83 C1061.00,422.59 1061.32,425.98 1061.71,426.37 C1062.09,426.76 1065.58,426.95 1069.46,426.79 L 1076.50 426.50 L 1076.79 419.25 ZM 593.79 337.75 L 594.08 330.00 L 584.54 330.00 L 575.00 330.00 L 575.00 337.33 C575.00,341.37 575.32,344.98 575.70,345.37 C576.09,345.76 580.25,345.94 584.95,345.79 L 593.50 345.50 L 593.79 337.75 ZM 622.00 338.00 L 622.00 330.00 L 613.00 330.00 L 604.00 330.00 L 604.00 337.33 C604.00,341.37 604.30,344.97 604.67,345.33 C605.03,345.70 609.08,346.00 613.67,346.00 L 622.00 346.00 L 622.00 338.00 ZM 592.21 414.98 C586.81,413.76 584.86,411.30 585.20,406.15 C585.59,400.33 588.12,398.47 598.50,396.39 C602.90,395.50 607.51,394.55 608.75,394.27 C610.85,393.80 611.00,394.10 610.98,398.63 C610.92,410.41 602.92,417.38 592.21,414.98 ZM 775.60 412.96 C767.91,410.66 763.37,401.07 764.24,388.95 C765.10,376.89 771.01,370.00 780.50,370.00 C789.99,370.00 795.90,376.89 796.76,388.95 C798.00,406.26 788.65,416.87 775.60,412.96 ZM 881.63 385.29 C880.11,384.90 879.87,384.17 880.34,381.28 C882.00,371.07 893.01,364.28 904.45,366.42 C911.05,367.66 918.91,377.04 918.98,383.75 L 919.00 386.00 L 901.25 385.88 C891.49,385.82 882.66,385.55 881.63,385.29 ZM 1170.28 381.96 C1171.67,371.61 1181.84,364.70 1193.17,366.40 C1199.12,367.29 1204.25,371.26 1207.02,377.10 C1211.03,385.56 1211.24,385.46 1189.10,385.77 L 1169.73 386.04 L 1170.28 381.96 Z" fill="none"/>
</g>
</svg>